<?xml version="1.0" encoding="UTF-8"?>
<svg id="Layer_1" xmlns="http://www.w3.org/2000/svg" viewBox="0 0 292.46 289.33">
  <defs>
    <style>
      .cls-1 {
        fill: #2c59f1;
      }

      .cls-2 {
        fill: #b5c03d;
      }
    </style>
  </defs>
  <rect class="cls-1" x="-21.97" y="-25.45" width="340.16" height="336.52"/>
  <g>
    <g>
      <path class="cls-2" d="M94.54,86c.36.13,1.04-.27,1.39-.61,1.68-1.6,3.23-3.34,4.96-4.89,5.71-5.14,12.16-6.85,19.6-4.26,13.79,4.8,14.4,21.43,7.07,28.58-6.36,6.2-12.48,12.66-18.92,18.78-4.67,4.44-10.42,5.99-16.79,4.71-5.56-1.12-9.18-4.85-12.07-9.44-.83-1.32-1.57-2.7-2.36-4.07-3.08,3.09-6.07,6.08-9.26,9.29,1.58,2.32,3.11,4.83,4.91,7.13,12.11,15.47,32.1,12.89,41.84,3.24,6.88-6.81,13.74-13.64,20.48-20.58,4.9-5.04,7.72-11.17,8.22-18.19.6-8.32-1.98-15.98-7.01-21.77,0,0,0,0,0-.01-.08-.08-.15-.17-.23-.26-.01-.02-.03-.03-.04-.05-1.26-1.39-2.46-2.81-3.51-4.33-5.55-8.04-2.35-20.42,5.42-25.82,7.09-4.93,16.6-4.02,22.99,2.29,5.96,5.88,11.96,11.74,17.75,17.79,4.83,5.05,6.48,11.16,4.87,18.01-1.42,6.02-5.76,9.53-10.87,12.32-.81.44-1.65.85-2.52,1.3,3.13,3.11,6.09,6.06,9.36,9.32,2.73-1.96,5.62-3.77,8.2-5.94,14.27-12.02,11.81-32.2,1.01-42.06-2.51-2.29-4.82-4.79-7.23-7.17-4.75-4.69-9.39-9.5-14.32-14-4.87-4.45-10.68-7.21-17.3-7.91-6.76-.72-12.71,1.66-18.14,5.41-9.25,6.39-16.35,18.27-13.46,31.1-8.89-1.78-17.23.31-24.55,7.17-4.13,3.87-8,8.01-12.01,12-.7.69-1.5,1.28-2.25,1.92,5.17-.05,10.01-.66,14.76,1.02Z"/>
      <path class="cls-2" d="M81.51,191.76c-5.14-5.71-6.85-12.16-4.26-19.6,4.8-13.79,21.43-14.4,28.58-7.07,6.2,6.36,12.66,12.48,18.78,18.92,4.44,4.67,5.99,10.42,4.71,16.79-1.12,5.56-4.85,9.18-9.44,12.07-1.32.83-2.7,1.57-4.07,2.36,3.09,3.08,6.08,6.07,9.29,9.26,2.32-1.58,4.83-3.11,7.13-4.91,15.47-12.11,12.89-32.1,3.24-41.84-6.81-6.88-13.64-13.74-20.58-20.48-5.04-4.9-11.17-7.72-18.19-8.22-9.28-.67-17.77,2.61-23.72,8.85-7.86,4.18-18.2.98-23.23-6.25-4.93-7.09-4.02-16.6,2.29-22.99,5.88-5.96,11.74-11.96,17.79-17.75,5.05-4.83,11.16-6.48,18.01-4.87,6.02,1.42,9.53,5.76,12.32,10.87.44.81.85,1.65,1.3,2.52,3.11-3.13,6.06-6.09,9.32-9.36-1.96-2.73-3.77-5.62-5.94-8.2-12.02-14.27-32.21-11.81-42.06-1.01-2.29,2.51-4.79,4.82-7.17,7.23-4.69,4.75-9.5,9.39-14,14.32-4.45,4.87-7.21,10.68-7.91,17.3-.72,6.76,1.66,12.71,5.41,18.14,5.66,8.2,15.4,14.54,26.39,13.79-2.69,9.8-.89,18.99,6.58,26.98,3.87,4.13,8.01,8,12,12.01.69.7,1.28,1.5,1.92,2.25-.05-5.17-.66-10.01,1.02-14.76.13-.36-.27-1.04-.61-1.39-1.6-1.68-3.34-3.23-4.89-4.96Z"/>
      <path class="cls-2" d="M251.79,128.51c-5.68-8.22-15.39-14.63-26.36-13.87,2.66-9.77.85-18.93-6.61-26.9-3.87-4.13-8.01-8-12-12.01-.69-.7-1.28-1.5-1.92-2.25.05,5.17.66,10.01-1.02,14.76-.13.36.27,1.04.61,1.39,1.6,1.68,3.34,3.23,4.89,4.96,5.14,5.71,6.85,12.16,4.26,19.6-.98,2.81-2.45,5.07-4.24,6.83-.05.04-.1.08-.16.12,0,0,.01.01.02.02-6.97,6.73-18.55,5.91-24.21.1-6.2-6.36-12.66-12.48-18.78-18.92-4.44-4.67-5.99-10.42-4.71-16.79,1.12-5.56,4.85-9.18,9.44-12.07,1.32-.83,2.7-1.57,4.07-2.36-3.09-3.08-6.08-6.07-9.29-9.26-2.32,1.58-4.83,3.11-7.13,4.91-15.47,12.11-12.89,32.1-3.24,41.84,6.81,6.88,13.64,13.74,20.58,20.48,5.04,4.9,11.17,7.72,18.19,8.22,8.65.62,16.59-2.2,22.45-7.63,7.97-4.84,19.28-2.47,24.49,5.02,4.93,7.09,4.02,16.6-2.29,22.99-5.88,5.96-11.74,11.96-17.79,17.75-5.05,4.83-11.16,6.48-18.01,4.87-6.02-1.42-9.53-5.76-12.32-10.87-.44-.81-.85-1.65-1.3-2.52-3.11,3.13-6.06,6.09-9.32,9.36,1.96,2.73,3.77,5.62,5.94,8.2,12.02,14.27,32.21,11.81,42.06,1.01,2.29-2.51,4.79-4.82,7.17-7.23,4.69-4.75,9.5-9.39,14-14.32,4.45-4.87,7.21-10.68,7.91-17.3.72-6.76-1.66-12.71-5.41-18.14Z"/>
      <path class="cls-2" d="M196.34,200.34c-.36-.13-1.04.27-1.39.61-1.68,1.6-3.23,3.34-4.96,4.89-5.71,5.14-12.16,6.85-19.6,4.26-13.79-4.8-14.4-21.43-7.07-28.58,6.36-6.2,12.48-12.66,18.92-18.78,4.67-4.44,10.42-5.99,16.79-4.71,5.56,1.12,9.18,4.85,12.07,9.44.83,1.32,1.57,2.7,2.36,4.07,3.08-3.09,6.07-6.08,9.26-9.29-1.58-2.32-3.11-4.83-4.91-7.13-12.11-15.47-32.1-12.89-41.84-3.24-6.88,6.81-13.74,13.64-20.48,20.58-4.9,5.04-7.72,11.17-8.22,18.19-.6,8.32,1.98,15.98,7.01,21.77,0,0,0,0,0,.01.08.08.15.17.23.26.01.02.03.03.04.05,1.26,1.39,2.46,2.81,3.51,4.33,5.55,8.04,2.35,20.42-5.42,25.82-7.09,4.93-16.6,4.02-22.99-2.29-5.96-5.88-11.96-11.74-17.75-17.79-4.83-5.05-6.48-11.16-4.87-18.01,1.42-6.02,5.76-9.53,10.87-12.32.81-.44,1.65-.85,2.52-1.3-3.13-3.11-6.09-6.06-9.36-9.32-2.73,1.96-5.62,3.77-8.2,5.94-14.27,12.02-11.81,32.2-1.01,42.06,2.51,2.29,4.82,4.79,7.23,7.17,4.75,4.69,9.39,9.5,14.32,14,4.87,4.45,10.68,7.21,17.3,7.91,6.76.72,12.71-1.66,18.14-5.41,9.25-6.39,16.35-18.27,13.46-31.1,8.89,1.78,17.23-.31,24.55-7.17,4.13-3.87,8-8.01,12.01-12,.7-.69,1.5-1.28,2.25-1.92-5.17.05-10.01.66-14.76-1.02Z"/>
    </g>
    <polygon class="cls-2" points="140.44 164.82 122.48 147.65 128.4 141.45 140.31 152.84 163.58 129.58 169.63 135.63 140.44 164.82"/>
  </g>
</svg>